<svg width="49" height="49" viewBox="0 0 49 49" fill="none" xmlns="http://www.w3.org/2000/svg">
<path opacity="0.12" d="M6.125 17.9666C6.125 14.5363 6.125 12.8211 6.79259 11.5109C7.37981 10.3584 8.31682 9.42144 9.46931 8.83421C10.7795 8.16663 12.4947 8.16663 15.925 8.16663H33.075C36.5053 8.16663 38.2205 8.16663 39.5307 8.83421C40.6832 9.42144 41.6202 10.3584 42.2074 11.5109C42.875 12.8211 42.875 14.5363 42.875 17.9666V20.4166H6.125V17.9666Z" fill="#373737"/>
<path d="M42.875 20.4167H6.125M32.6667 4.08337V12.25M16.3333 4.08337V12.25M21.4375 28.5834L24.5 26.5417V36.75M21.9479 36.75H27.0521M15.925 44.9167H33.075C36.5053 44.9167 38.2205 44.9167 39.5307 44.2491C40.6832 43.6619 41.6202 42.7249 42.2074 41.5724C42.875 40.2622 42.875 38.547 42.875 35.1167V17.9667C42.875 14.5364 42.875 12.8212 42.2074 11.511C41.6202 10.3585 40.6832 9.42152 39.5307 8.83429C38.2205 8.16671 36.5053 8.16671 33.075 8.16671H15.925C12.4947 8.16671 10.7795 8.16671 9.46931 8.83429C8.31682 9.42152 7.37981 10.3585 6.79259 11.511C6.125 12.8212 6.125 14.5364 6.125 17.9667V35.1167C6.125 38.547 6.125 40.2622 6.79259 41.5724C7.37981 42.7249 8.31682 43.6619 9.46931 44.2491C10.7795 44.9167 12.4947 44.9167 15.925 44.9167Z" stroke="#373737" stroke-width="3.33333" stroke-linecap="round" stroke-linejoin="round"/>
</svg>
