<svg width="49" height="49" viewBox="0 0 49 49" fill="none" xmlns="http://www.w3.org/2000/svg">
<path opacity="0.12" d="M4.08325 25.5209H11.3244C12.4273 25.5209 12.9787 25.5209 13.5119 25.6159C13.9852 25.7003 14.447 25.8401 14.8876 26.0324C15.384 26.2491 15.8428 26.555 16.7604 27.1668L17.9477 27.9583C18.8654 28.5701 19.3242 28.876 19.8206 29.0927C20.2612 29.285 20.7229 29.4248 21.1962 29.5092C21.7295 29.6042 22.2809 29.6042 23.3838 29.6042H25.6161C26.7189 29.6042 27.2704 29.6042 27.8036 29.5092C28.2769 29.4248 28.7386 29.285 29.1792 29.0927C29.6756 28.876 30.1345 28.5701 31.0521 27.9583L32.2394 27.1668C33.157 26.555 33.6159 26.2491 34.1123 26.0324C34.5529 25.8401 35.0146 25.7003 35.4879 25.6159C36.0211 25.5209 36.5726 25.5209 37.6755 25.5209H44.9166V34.3C44.9166 36.5869 44.9166 37.7304 44.4715 38.6038C44.08 39.3722 43.4554 39.9968 42.687 40.3883C41.8136 40.8334 40.6701 40.8334 38.3833 40.8334H10.6166C8.3297 40.8334 7.18626 40.8334 6.31279 40.3883C5.54446 39.9968 4.91979 39.3722 4.52831 38.6038C4.08325 37.7304 4.08325 36.5869 4.08325 34.3V25.5209Z" fill="#F5F5F5"/>
<path d="M44.9166 17.3541H4.08325M4.08325 25.5208H11.3244C12.4273 25.5208 12.9787 25.5208 13.5119 25.6158C13.9852 25.7002 14.447 25.84 14.8876 26.0323C15.384 26.249 15.8428 26.5549 16.7604 27.1667L17.9477 27.9582C18.8654 28.57 19.3242 28.8759 19.8206 29.0926C20.2612 29.2849 20.7229 29.4247 21.1962 29.5091C21.7295 29.6041 22.2809 29.6041 23.3838 29.6041H25.6161C26.7189 29.6041 27.2704 29.6041 27.8036 29.5091C28.2769 29.4247 28.7386 29.2849 29.1792 29.0926C29.6756 28.8759 30.1345 28.57 31.0521 27.9582L32.2394 27.1667C33.157 26.5549 33.6159 26.249 34.1123 26.0323C34.5529 25.84 35.0146 25.7002 35.4879 25.6158C36.0211 25.5208 36.5726 25.5208 37.6755 25.5208H44.9166M4.08325 14.7L4.08325 34.3C4.08325 36.5868 4.08325 37.7303 4.52831 38.6037C4.91979 39.3721 5.54446 39.9967 6.31279 40.3882C7.18626 40.8333 8.3297 40.8333 10.6166 40.8333L38.3833 40.8333C40.6701 40.8333 41.8136 40.8333 42.687 40.3882C43.4554 39.9968 44.0801 39.3721 44.4715 38.6038C44.9166 37.7303 44.9166 36.5868 44.9166 34.3V14.7C44.9166 12.4131 44.9166 11.2696 44.4715 10.3962C44.0801 9.62784 43.4554 9.00317 42.687 8.61169C41.8136 8.16663 40.6701 8.16663 38.3833 8.16663L10.6166 8.16663C8.32971 8.16663 7.18626 8.16663 6.31279 8.61168C5.54446 9.00317 4.91979 9.62784 4.52831 10.3962C4.08325 11.2696 4.08325 12.4131 4.08325 14.7Z" stroke="#F5F5F5" stroke-width="3.33333" stroke-linecap="round" stroke-linejoin="round"/>
</svg>
