<svg width="48" height="38" viewBox="0 0 48 38" fill="none" xmlns="http://www.w3.org/2000/svg">
<path d="M42.6667 1H5.16667C2.86548 1 1 2.86548 1 5.16667V30.1667C1 32.4679 2.86548 34.3333 5.16667 34.3333H42.6667C44.9678 34.3333 46.8333 32.4679 46.8333 30.1667V5.16667C46.8333 2.86548 44.9678 1 42.6667 1Z" stroke="black" stroke-width="2" stroke-linecap="round" stroke-linejoin="round"/>
<path d="M1 13.5H46.8333" stroke="black" stroke-width="2" stroke-linecap="round" stroke-linejoin="round"/>
<path d="M28.6003 29.7877C27.4024 30.4908 26.1394 30.8489 24.8113 30.8619C23.0014 30.8619 21.5365 30.263 20.4167 29.0651C19.349 27.9062 18.8152 26.4739 18.8152 24.7682C18.8152 23.3619 19.1993 22.1184 19.9675 21.0377C21.0743 19.5143 22.6694 18.7526 24.7527 18.7526C25.0261 18.7526 25.2996 18.7656 25.573 18.7916C26.797 18.9218 27.78 19.2734 28.5222 19.8463C28.5222 19.5338 28.5352 19.2994 28.5613 19.1432C28.6264 18.9479 28.8087 18.8502 29.1082 18.8502L29.1667 22.5026H28.6589C28.0339 20.3932 26.7709 19.3255 24.8699 19.2994C24.1928 19.2994 23.5808 19.4687 23.0339 19.8073C21.6798 20.6406 21.0027 22.3007 21.0027 24.7877C21.0027 25.7252 21.1003 26.5651 21.2957 27.3073C21.8165 29.3125 22.9819 30.3151 24.7917 30.3151C26.7579 30.302 28.0665 29.2083 28.7175 27.0338H29.2253V30.7643C29.0691 30.7643 28.9519 30.7513 28.8738 30.7252C28.6915 30.6471 28.6003 30.3346 28.6003 29.7877Z" fill="black"/>
</svg>
