<svg width="51" height="51" viewBox="0 0 51 51" fill="none" xmlns="http://www.w3.org/2000/svg">
<path opacity="0.12" d="M36.6491 17.9826L28.5174 9.8509C28.0257 9.35923 27.4542 8.96579 26.8333 8.68323V16.6001C26.8333 17.6735 26.8333 18.2102 27.0422 18.6202C27.2259 18.9809 27.5191 19.2741 27.8798 19.4579C28.2898 19.6668 28.8265 19.6668 29.8999 19.6668H37.8168C37.5342 19.0458 37.1408 18.4743 36.6491 17.9826Z" fill="#373737"/>
<path d="M26.8334 8.68323V16.6001C26.8334 17.6735 26.8334 18.2102 27.0423 18.6202C27.2261 18.9809 27.5193 19.2741 27.8799 19.4579C28.2899 19.6668 28.8266 19.6668 29.9001 19.6668H37.8169M30.6667 29.25H15.3334M30.6667 36.9166H15.3334M19.1667 21.5833H15.3334M26.8334 8.16663H16.8667C13.6464 8.16663 12.0363 8.16663 10.8063 8.79334C9.72437 9.34461 8.84473 10.2242 8.29346 11.3062C7.66675 12.5362 7.66675 14.1463 7.66675 17.3666V37.3C7.66675 40.5203 7.66675 42.1304 8.29346 43.3604C8.84473 44.4423 9.72437 45.322 10.8063 45.8732C12.0363 46.5 13.6464 46.5 16.8667 46.5H29.1334C32.3537 46.5 33.9639 46.5 35.1939 45.8732C36.2758 45.322 37.1554 44.4423 37.7067 43.3604C38.3334 42.1304 38.3334 40.5203 38.3334 37.3V19.6666L26.8334 8.16663Z" stroke="#373737" stroke-width="3.33333" stroke-linecap="round" stroke-linejoin="round"/>
</svg>
