<svg width="48" height="38" viewBox="0 0 48 38" fill="none" xmlns="http://www.w3.org/2000/svg">
<path d="M42.6667 1H5.16667C2.86548 1 1 2.86548 1 5.16667V30.1667C1 32.4679 2.86548 34.3333 5.16667 34.3333H42.6667C44.9678 34.3333 46.8333 32.4679 46.8333 30.1667V5.16667C46.8333 2.86548 44.9678 1 42.6667 1Z" stroke="black" stroke-width="2" stroke-linecap="round" stroke-linejoin="round"/>
<path d="M1 13.5H46.8333" stroke="black" stroke-width="2" stroke-linecap="round" stroke-linejoin="round"/>
<path d="M18.6199 18.9479H24.1277C25.4819 18.9479 26.6667 19.2669 27.6824 19.9049C29.323 20.9466 30.1433 22.5807 30.1433 24.8073C30.1433 26.526 29.5899 27.9257 28.4832 29.0065C27.3373 30.1132 25.8725 30.6666 24.0886 30.6666H18.6199V30.1588H20.1824V19.4557H18.6199V18.9479ZM24.0886 19.4557H22.0574V30.1588H24.1277C26.7319 30.1458 28.0404 28.3359 28.0535 24.7291C28.0535 23.7526 27.9558 22.9062 27.7605 22.1901C27.2527 20.3671 26.0287 19.4557 24.0886 19.4557Z" fill="black"/>
</svg>
