<svg width="50" height="50" viewBox="0 0 50 50" fill="none" xmlns="http://www.w3.org/2000/svg">
<path opacity="0.12" d="M6.25 38.178C6.25 37.1589 6.25 36.6493 6.36513 36.1698C6.4672 35.7447 6.63555 35.3382 6.864 34.9654C7.12168 34.5449 7.48199 34.1846 8.20263 33.464L34.3751 7.29161C36.1009 5.56572 38.8992 5.56572 40.6251 7.29161C42.3509 9.0175 42.3509 11.8157 40.6251 13.5416L14.4527 39.714C13.732 40.4346 13.3717 40.7949 12.9512 41.0526C12.5784 41.2811 12.172 41.4494 11.7469 41.5515C11.2673 41.6666 10.7578 41.6666 9.73863 41.6666H6.25V38.178Z" fill="#373737"/>
<path d="M43.75 37.5L41.6664 39.7792C40.5614 40.9877 39.0628 41.6666 37.5003 41.6666C35.9377 41.6666 34.4392 40.9877 33.3341 39.7792C32.2275 38.5731 30.7291 37.8959 29.167 37.8959C27.605 37.8959 26.1065 38.5731 24.9999 39.7792M6.25 41.6666H9.73863C10.7578 41.6666 11.2673 41.6666 11.7469 41.5515C12.172 41.4494 12.5784 41.2811 12.9512 41.0526C13.3717 40.7949 13.732 40.4346 14.4527 39.714L40.6251 13.5416C42.3509 11.8157 42.3509 9.0175 40.6251 7.29161C38.8992 5.56572 36.1009 5.56572 34.3751 7.29161L8.20263 33.464C7.48199 34.1846 7.12168 34.5449 6.864 34.9654C6.63555 35.3382 6.4672 35.7447 6.36513 36.1698C6.25 36.6493 6.25 37.1589 6.25 38.178V41.6666Z" stroke="#373737" stroke-width="3.33333" stroke-linecap="round" stroke-linejoin="round"/>
</svg>
