<svg width="50" height="50" viewBox="0 0 50 50" fill="none" xmlns="http://www.w3.org/2000/svg">
<path opacity="0.12" d="M40.2122 9.78777C41.8305 8.16951 42.6396 7.36038 43.0912 7.37533C43.4796 7.38818 43.8285 7.61617 43.9963 7.9667C44.1914 8.37423 43.7754 9.44021 42.9434 11.5722L30.722 42.8895C30.2382 44.1292 29.9963 44.7491 29.6486 44.9297C29.3471 45.0863 28.9883 45.0861 28.687 44.9292C28.3395 44.7481 28.0984 44.1279 27.616 42.8876L21.875 28.125L40.2122 9.78777Z" fill="#373737"/>
<path d="M21.8751 28.1251L43.7501 6.25012M22.1409 28.8086L27.6162 42.8878C28.0985 44.1281 28.3397 44.7482 28.6872 44.9293C28.9884 45.0862 29.3473 45.0864 29.6487 44.9298C29.9964 44.7492 30.2383 44.1293 30.7221 42.8896L44.452 7.70678C44.8887 6.58765 45.1071 6.02809 44.9877 5.67053C44.8839 5.36001 44.6402 5.11633 44.3297 5.01259C43.9722 4.89315 43.4126 5.11151 42.2935 5.54824L7.11068 19.2781C5.87094 19.7619 5.25107 20.0038 5.07042 20.3515C4.91383 20.653 4.91404 21.0118 5.07099 21.3131C5.25204 21.6606 5.8722 21.9017 7.1125 22.3841L21.1917 27.8593C21.4434 27.9572 21.5693 28.0062 21.6753 28.0818C21.7693 28.1488 21.8514 28.231 21.9185 28.3249C21.9941 28.4309 22.043 28.5568 22.1409 28.8086Z" stroke="#373737" stroke-width="3.33333" stroke-linecap="round" stroke-linejoin="round"/>
</svg>
