<svg width="50" height="50" viewBox="0 0 50 50" fill="none" xmlns="http://www.w3.org/2000/svg">
<path opacity="0.12" fill-rule="evenodd" clip-rule="evenodd" d="M24.9858 10.6996C20.8205 5.83 13.8746 4.52009 8.6557 8.97919C3.43684 13.4383 2.7021 20.8937 6.80049 26.1675C10.208 30.5523 20.5204 39.8002 23.9003 42.7934C24.2784 43.1283 24.4675 43.2957 24.688 43.3615C24.8805 43.4189 25.0911 43.4189 25.2836 43.3615C25.5041 43.2957 25.6932 43.1283 26.0713 42.7934C29.4512 39.8002 39.7636 30.5523 43.1711 26.1675C47.2695 20.8937 46.6245 13.3914 41.3159 8.97919C36.0074 4.56699 29.1511 5.83 24.9858 10.6996Z" fill="#373737"/>
<path fill-rule="evenodd" clip-rule="evenodd" d="M24.9858 10.6996C20.8205 5.83 13.8746 4.52009 8.6557 8.97919C3.43684 13.4383 2.7021 20.8937 6.80049 26.1675C10.208 30.5523 20.5204 39.8002 23.9003 42.7934C24.2784 43.1283 24.4675 43.2957 24.688 43.3615C24.8805 43.4189 25.0911 43.4189 25.2836 43.3615C25.5041 43.2957 25.6932 43.1283 26.0713 42.7934C29.4512 39.8002 39.7636 30.5523 43.1711 26.1675C47.2695 20.8937 46.6245 13.3914 41.3159 8.97919C36.0074 4.56699 29.1511 5.83 24.9858 10.6996Z" stroke="#373737" stroke-width="3.33333" stroke-linecap="round" stroke-linejoin="round"/>
</svg>
