<svg width="50" height="50" viewBox="0 0 50 50" fill="none" xmlns="http://www.w3.org/2000/svg">
<g opacity="0.12">
<path d="M13.6063 40.8501L31.229 24.8294C31.976 24.1503 32.3496 23.8107 32.7758 23.6722C33.1515 23.5502 33.5542 23.5375 33.9368 23.6356C34.3709 23.7469 34.7651 24.0623 35.5535 24.693L41.3811 29.3551C42.1689 29.9853 42.5627 30.3004 42.8607 30.68C43.2351 31.157 43.5008 31.7099 43.6394 32.3003C43.7497 32.77 43.7497 33.2744 43.7497 34.2832C43.7497 37.2815 43.7497 38.7806 43.246 39.9581C42.6137 41.4363 41.436 42.6139 39.9579 43.2463C38.7804 43.75 37.2813 43.75 34.283 43.75H14.7274C13.3878 43.75 12.718 43.75 12.423 43.4906C12.1673 43.2659 12.0376 42.9303 12.0756 42.592C12.1194 42.2017 12.6151 41.7512 13.6063 40.8501Z" fill="#373737"/>
<path d="M17.7081 21.875C20.0092 21.875 21.8747 20.0095 21.8747 17.7083C21.8747 15.4071 20.0092 13.5416 17.7081 13.5416C15.4069 13.5416 13.5414 15.4071 13.5414 17.7083C13.5414 20.0095 15.4069 21.875 17.7081 21.875Z" fill="#373737"/>
</g>
<path d="M26.0417 6.24996H16.25C12.7497 6.24996 10.9995 6.24996 9.66256 6.93117C8.48655 7.53038 7.53042 8.48651 6.93121 9.66252C6.25 10.9995 6.25 12.7496 6.25 16.25V33.75C6.25 37.2503 6.25 39.0005 6.93121 40.3374C7.53042 41.5134 8.48655 42.4695 9.66256 43.0688C10.9995 43.75 12.7497 43.75 16.25 43.75H35.4167C37.3541 43.75 38.3228 43.75 39.1176 43.537C41.2744 42.9591 42.9591 41.2744 43.537 39.1176C43.75 38.3228 43.75 37.3541 43.75 35.4166M39.5833 16.6666V4.16663M33.3333 10.4166H45.8333M21.875 17.7083C21.875 20.0095 20.0095 21.875 17.7083 21.875C15.4071 21.875 13.5417 20.0095 13.5417 17.7083C13.5417 15.4071 15.4071 13.5416 17.7083 13.5416C20.0095 13.5416 21.875 15.4071 21.875 17.7083ZM31.2292 24.8294L13.6066 40.8501C12.6153 41.7512 12.1197 42.2017 12.0759 42.592C12.0379 42.9303 12.1676 43.2659 12.4233 43.4907C12.7183 43.75 13.3881 43.75 14.7277 43.75H34.2833C37.2816 43.75 38.7807 43.75 39.9582 43.2463C41.4363 42.6139 42.614 41.4363 43.2463 39.9581C43.75 38.7806 43.75 37.2815 43.75 34.2833C43.75 33.2744 43.75 32.77 43.6397 32.3003C43.5011 31.7099 43.2354 31.157 42.861 30.68C42.563 30.3004 42.1691 29.9853 41.3814 29.3551L35.5538 24.693C34.7654 24.0623 34.3712 23.7469 33.9371 23.6356C33.5544 23.5375 33.1518 23.5502 32.7761 23.6722C32.3499 23.8107 31.9763 24.1503 31.2292 24.8294Z" stroke="#373737" stroke-width="3.33333" stroke-linecap="round" stroke-linejoin="round"/>
</svg>
