<svg width="50" height="50" viewBox="0 0 50 50" fill="none" xmlns="http://www.w3.org/2000/svg">
<path opacity="0.12" d="M6.25 33.75C6.25 37.2503 6.25 39.0005 6.93121 40.3374C7.53042 41.5135 8.48655 42.4696 9.66256 43.0688C10.9995 43.75 12.7497 43.75 16.25 43.75H33.75C37.2503 43.75 39.0005 43.75 40.3374 43.0688C41.5135 42.4696 42.4696 41.5135 43.0688 40.3374C43.75 39.0005 43.75 37.2503 43.75 33.75V16.25C43.75 12.7497 43.75 10.9995 43.0688 9.66256C42.4696 8.48655 41.5135 7.53041 40.3374 6.93121C39.0005 6.25 37.2503 6.25 33.75 6.25H16.25C12.7497 6.25 10.9995 6.25 9.66256 6.93121C8.48655 7.53041 7.53042 8.48655 6.93121 9.66256C6.25 10.9995 6.25 12.7497 6.25 16.25V33.75Z" fill="#373737"/>
<path d="M35.4167 31.25L24.0952 19.9285C23.6827 19.516 23.4764 19.3097 23.2386 19.2325C23.0293 19.1645 22.804 19.1645 22.5948 19.2325C22.3569 19.3097 22.1507 19.516 21.7382 19.9285L17.8452 23.8215C17.4327 24.234 17.2264 24.4403 16.9886 24.5175C16.7793 24.5855 16.554 24.5855 16.3448 24.5175C16.1069 24.4403 15.9007 24.234 15.4882 23.8215L6.25 14.5833M35.4167 31.25H27.0833M35.4167 31.25V22.9167M16.25 6.25H33.75C37.2503 6.25 39.0005 6.25 40.3374 6.93121C41.5135 7.53042 42.4696 8.48655 43.0688 9.66256C43.75 10.9995 43.75 12.7497 43.75 16.25V33.75C43.75 37.2503 43.75 39.0005 43.0688 40.3374C42.4696 41.5135 41.5135 42.4696 40.3374 43.0688C39.0005 43.75 37.2503 43.75 33.75 43.75H16.25C12.7497 43.75 10.9995 43.75 9.66256 43.0688C8.48655 42.4696 7.53042 41.5135 6.93121 40.3374C6.25 39.0005 6.25 37.2503 6.25 33.75V16.25C6.25 12.7497 6.25 10.9995 6.93121 9.66256C7.53042 8.48655 8.48655 7.53042 9.66256 6.93121C10.9995 6.25 12.7497 6.25 16.25 6.25Z" stroke="#373737" stroke-width="3.33333" stroke-linecap="round" stroke-linejoin="round"/>
</svg>
