<svg width="50" height="50" viewBox="0 0 50 50" fill="none" xmlns="http://www.w3.org/2000/svg">
<path opacity="0.12" d="M25.0001 33.3333C29.6025 33.3333 33.3334 29.6023 33.3334 25C33.3334 20.3976 29.6025 16.6666 25.0001 16.6666C20.3977 16.6666 16.6667 20.3976 16.6667 25C16.6667 29.6023 20.3977 33.3333 25.0001 33.3333Z" fill="#373737"/>
<path d="M45.8334 23.9583V30.4166C45.8334 35.0837 45.8334 37.4173 44.9251 39.1999C44.1262 40.7679 42.8514 42.0427 41.2833 42.8417C39.5007 43.75 37.1672 43.75 32.5001 43.75H17.5001C12.833 43.75 10.4994 43.75 8.71683 42.8417C7.14881 42.0427 5.87397 40.7679 5.07503 39.1999C4.16675 37.4173 4.16675 35.0837 4.16675 30.4166V19.5833C4.16675 14.9162 4.16675 12.5826 5.07503 10.8C5.87397 9.23202 7.14881 7.95718 8.71683 7.15824C10.4994 6.24996 12.833 6.24996 17.5001 6.24996H26.0417M39.5834 16.6666V4.16663M33.3334 10.4166H45.8334M33.3334 25C33.3334 29.6023 29.6025 33.3333 25.0001 33.3333C20.3977 33.3333 16.6667 29.6023 16.6667 25C16.6667 20.3976 20.3977 16.6666 25.0001 16.6666C29.6025 16.6666 33.3334 20.3976 33.3334 25Z" stroke="#373737" stroke-width="3.33333" stroke-linecap="round" stroke-linejoin="round"/>
</svg>
