<svg width="50" height="50" viewBox="0 0 50 50" fill="none" xmlns="http://www.w3.org/2000/svg">
<path opacity="0.12" d="M19.7917 18.6778C19.7917 17.6835 19.7917 17.1863 19.9995 16.9087C20.1806 16.6669 20.4578 16.5155 20.7592 16.494C21.105 16.4693 21.5233 16.7381 22.3597 17.2758L32.1942 23.5981C32.9201 24.0647 33.283 24.2979 33.4083 24.5946C33.5178 24.8538 33.5178 25.1463 33.4083 25.4055C33.283 25.7021 32.9201 25.9354 32.1942 26.402L22.3597 32.7242C21.5233 33.2619 21.105 33.5308 20.7592 33.5061C20.4578 33.4845 20.1806 33.3332 19.9995 33.0913C19.7917 32.8138 19.7917 32.3166 19.7917 31.3223V18.6778Z" fill="#373737"/>
<path d="M25.0001 45.8333C36.506 45.8333 45.8334 36.5059 45.8334 25C45.8334 13.494 36.506 4.16663 25.0001 4.16663C13.4941 4.16663 4.16675 13.494 4.16675 25C4.16675 36.5059 13.4941 45.8333 25.0001 45.8333Z" stroke="#373737" stroke-width="3.33333" stroke-linecap="round" stroke-linejoin="round"/>
<path d="M19.7917 18.6777C19.7917 17.6834 19.7917 17.1862 19.9995 16.9087C20.1806 16.6668 20.4578 16.5155 20.7592 16.4939C21.105 16.4692 21.5233 16.7381 22.3597 17.2758L32.1943 23.598C32.9201 24.0646 33.283 24.2979 33.4083 24.5945C33.5178 24.8537 33.5178 25.1462 33.4083 25.4054C33.283 25.702 32.9201 25.9353 32.1943 26.4019L22.3597 32.7241C21.5233 33.2618 21.105 33.5307 20.7592 33.506C20.4578 33.4845 20.1806 33.3331 19.9995 33.0913C19.7917 32.8137 19.7917 32.3165 19.7917 31.3222V18.6777Z" stroke="#373737" stroke-width="3.33333" stroke-linecap="round" stroke-linejoin="round"/>
</svg>
