<svg width="48" height="15" viewBox="0 0 48 15" fill="none" xmlns="http://www.w3.org/2000/svg">
<path d="M0 11.4531V0H1.51562V10.1016H7.15625V11.4531H0ZM8.79688 1.61719V0H10.2031V1.61719H8.79688ZM8.79688 11.4531V3.15625H10.2031V11.4531H8.79688ZM12.3516 11.4531V3.15625H13.6094V4.32031C13.8698 3.91406 14.2161 3.58854 14.6484 3.34375C15.0807 3.09375 15.5729 2.96875 16.125 2.96875C16.7396 2.96875 17.2422 3.09635 17.6328 3.35156C18.0286 3.60677 18.3073 3.96354 18.4688 4.42188C19.125 3.45312 19.9792 2.96875 21.0312 2.96875C21.8542 2.96875 22.487 3.19792 22.9297 3.65625C23.3724 4.10938 23.5938 4.8099 23.5938 5.75781V11.4531H22.1953V6.22656C22.1953 5.66406 22.1484 5.26042 22.0547 5.01562C21.9661 4.76562 21.8021 4.5651 21.5625 4.41406C21.3229 4.26302 21.0417 4.1875 20.7188 4.1875C20.1354 4.1875 19.651 4.38281 19.2656 4.77344C18.8802 5.15885 18.6875 5.77865 18.6875 6.63281V11.4531H17.2812V6.0625C17.2812 5.4375 17.1667 4.96875 16.9375 4.65625C16.7083 4.34375 16.3333 4.1875 15.8125 4.1875C15.4167 4.1875 15.0495 4.29167 14.7109 4.5C14.3776 4.70833 14.1354 5.01302 13.9844 5.41406C13.8333 5.8151 13.7578 6.39323 13.7578 7.14844V11.4531H12.3516ZM25.6797 14.6328V3.15625H26.9609V4.23438C27.263 3.8125 27.6042 3.4974 27.9844 3.28906C28.3646 3.07552 28.8255 2.96875 29.3672 2.96875C30.0755 2.96875 30.7005 3.15104 31.2422 3.51562C31.7839 3.88021 32.1927 4.39583 32.4688 5.0625C32.7448 5.72396 32.8828 6.45052 32.8828 7.24219C32.8828 8.09115 32.7292 8.85677 32.4219 9.53906C32.1198 10.2161 31.6771 10.737 31.0938 11.1016C30.5156 11.4609 29.9062 11.6406 29.2656 11.6406C28.7969 11.6406 28.375 11.5417 28 11.3438C27.6302 11.1458 27.3255 10.8958 27.0859 10.5938V14.6328H25.6797ZM26.9531 7.35156C26.9531 8.41927 27.1693 9.20833 27.6016 9.71875C28.0339 10.2292 28.5573 10.4844 29.1719 10.4844C29.7969 10.4844 30.3307 10.2214 30.7734 9.69531C31.2214 9.16406 31.4453 8.34375 31.4453 7.23438C31.4453 6.17708 31.2266 5.38542 30.7891 4.85938C30.3568 4.33333 29.8385 4.07031 29.2344 4.07031C28.6354 4.07031 28.1042 4.35156 27.6406 4.91406C27.1823 5.47135 26.9531 6.28385 26.9531 7.35156ZM40 10.4297C39.4792 10.8724 38.9766 11.1849 38.4922 11.3672C38.013 11.5495 37.4974 11.6406 36.9453 11.6406C36.0339 11.6406 35.3333 11.4193 34.8438 10.9766C34.3542 10.5286 34.1094 9.95833 34.1094 9.26562C34.1094 8.85938 34.2005 8.48958 34.3828 8.15625C34.5703 7.81771 34.8125 7.54688 35.1094 7.34375C35.4115 7.14062 35.75 6.98698 36.125 6.88281C36.401 6.8099 36.8177 6.73958 37.375 6.67188C38.5104 6.53646 39.3464 6.375 39.8828 6.1875C39.888 5.99479 39.8906 5.8724 39.8906 5.82031C39.8906 5.2474 39.7578 4.84375 39.4922 4.60938C39.1328 4.29167 38.599 4.13281 37.8906 4.13281C37.2292 4.13281 36.7396 4.25 36.4219 4.48438C36.1094 4.71354 35.8776 5.1224 35.7266 5.71094L34.3516 5.52344C34.4766 4.9349 34.6823 4.46094 34.9688 4.10156C35.2552 3.73698 35.6693 3.45833 36.2109 3.26562C36.7526 3.06771 37.3802 2.96875 38.0938 2.96875C38.8021 2.96875 39.3776 3.05208 39.8203 3.21875C40.263 3.38542 40.5885 3.59635 40.7969 3.85156C41.0052 4.10156 41.151 4.41927 41.2344 4.80469C41.2812 5.04427 41.3047 5.47656 41.3047 6.10156V7.97656C41.3047 9.28385 41.3333 10.112 41.3906 10.4609C41.4531 10.8047 41.5729 11.1354 41.75 11.4531H40.2812C40.1354 11.1615 40.0417 10.8203 40 10.4297ZM39.8828 7.28906C39.3724 7.4974 38.6068 7.67448 37.5859 7.82031C37.0078 7.90365 36.599 7.9974 36.3594 8.10156C36.1198 8.20573 35.9349 8.35938 35.8047 8.5625C35.6745 8.76042 35.6094 8.98177 35.6094 9.22656C35.6094 9.60156 35.75 9.91406 36.0312 10.1641C36.3177 10.4141 36.7344 10.5391 37.2812 10.5391C37.8229 10.5391 38.3047 10.4219 38.7266 10.1875C39.1484 9.94792 39.4583 9.6224 39.6562 9.21094C39.8073 8.89323 39.8828 8.42448 39.8828 7.80469V7.28906ZM43.4766 11.4531V3.15625H44.7422V4.41406C45.0651 3.82552 45.362 3.4375 45.6328 3.25C45.9089 3.0625 46.2109 2.96875 46.5391 2.96875C47.013 2.96875 47.4948 3.11979 47.9844 3.42188L47.5 4.72656C47.1562 4.52344 46.8125 4.42188 46.4688 4.42188C46.1615 4.42188 45.8854 4.51562 45.6406 4.70312C45.3958 4.88542 45.2214 5.14062 45.1172 5.46875C44.9609 5.96875 44.8828 6.51562 44.8828 7.10938V11.4531H43.4766Z" fill="#0077E0"/>
</svg>
