<svg width="50" height="50" viewBox="0 0 50 50" fill="none" xmlns="http://www.w3.org/2000/svg">
<path opacity="0.12" d="M25 25L43.75 14.5834V33.4554C43.75 34.1692 43.75 34.5261 43.6448 34.8445C43.5518 35.1261 43.3997 35.3846 43.1987 35.6027C42.9715 35.8492 42.6595 36.0226 42.0355 36.3692L26.6188 44.934C26.028 45.2623 25.7325 45.4264 25.4197 45.4907C25.1428 45.5477 24.8572 45.5477 24.5803 45.4907C24.2675 45.4264 23.972 45.2623 23.3812 44.934L7.96453 36.3692C7.34052 36.0225 7.02851 35.8492 6.80132 35.6027C6.60033 35.3846 6.44822 35.1261 6.35518 34.8445C6.25 34.5261 6.25 34.1692 6.25 33.4554V14.5834L25 25Z" fill="#373737"/>
<path d="M42.7083 15.1619L24.9999 24.9999M24.9999 24.9999L7.2916 15.1619M24.9999 24.9999L25 44.7916M43.75 33.4553V16.5446C43.75 15.8308 43.75 15.4739 43.6448 15.1556C43.5518 14.8739 43.3997 14.6154 43.1987 14.3973C42.9715 14.1508 42.6595 13.9775 42.0355 13.6308L26.6188 5.06598C26.028 4.73773 25.7325 4.57361 25.4197 4.50926C25.1428 4.45232 24.8572 4.45232 24.5803 4.50926C24.2675 4.57361 23.972 4.73773 23.3812 5.06598L7.96452 13.6308C7.34052 13.9775 7.02851 14.1508 6.80132 14.3973C6.60033 14.6154 6.44822 14.8739 6.35518 15.1556C6.25 15.4739 6.25 15.8308 6.25 16.5447V33.4553C6.25 34.1691 6.25 34.5261 6.35518 34.8444C6.44822 35.126 6.60033 35.3845 6.80132 35.6026C7.02851 35.8491 7.34052 36.0225 7.96453 36.3692L23.3812 44.934C23.972 45.2622 24.2675 45.4263 24.5803 45.4907C24.8572 45.5476 25.1428 45.5476 25.4197 45.4907C25.7325 45.4263 26.028 45.2622 26.6188 44.934L42.0355 36.3692C42.6595 36.0225 42.9715 35.8491 43.1987 35.6026C43.3997 35.3845 43.5518 35.126 43.6448 34.8444C43.75 34.5261 43.75 34.1691 43.75 33.4553Z" stroke="#373737" stroke-width="3.33333" stroke-linecap="round" stroke-linejoin="round"/>
</svg>
