<svg width="52" height="31" viewBox="0 0 52 31" fill="none" xmlns="http://www.w3.org/2000/svg">
<rect x="0.5" y="0.5" width="51" height="30" rx="9.5" stroke="black"/>
<path d="M16.5703 20.3047C16.5703 21.3047 16.2734 22.1875 15.6797 22.9531C14.7109 24.2344 13.2422 24.875 11.2734 24.875C10.2422 24.875 9.34375 24.6562 8.57812 24.2188C7.59375 23.6406 7.10156 22.8828 7.10156 21.9453C7.17969 21.2578 7.57031 20.8516 8.27344 20.7266C8.60156 20.7266 8.86719 20.8047 9.07031 20.9609C9.32031 21.1641 9.48438 21.6484 9.5625 22.4141C9.59375 22.7578 9.63281 23.0156 9.67969 23.1875C9.85156 23.9219 10.3516 24.2891 11.1797 24.2891C11.7109 24.2891 12.1953 24.1875 12.6328 23.9844C13.8047 23.4219 14.3906 22.2344 14.3906 20.4219C14.3906 19.8906 14.3281 19.3984 14.2031 18.9453C13.7812 17.5234 12.8359 16.8125 11.3672 16.8125C10.4609 16.8125 9.61719 17.1172 8.83594 17.7266L8.0625 17.1406V10.5312C10.5312 10.6562 12.0078 10.7188 12.4922 10.7188C13.2734 10.7188 13.8438 10.6641 14.2031 10.5547C14.6719 10.4297 14.9766 10.1094 15.1172 9.59375H15.6797C15.6797 10.7656 15.4922 11.5547 15.1172 11.9609C14.6953 12.3828 13.6719 12.5938 12.0469 12.5938C11.1875 12.5938 10.1172 12.5312 8.83594 12.4062V16.8828C9.72656 16.2891 10.7812 15.9844 12 15.9688C13.1406 15.9688 14.1094 16.2656 14.9062 16.8594C16.0156 17.6719 16.5703 18.8203 16.5703 20.3047ZM23.6953 10.2969C24.7266 10.2969 25.6328 10.5547 26.4141 11.0703C28.0234 12.1328 28.8281 14.0312 28.8281 16.7656C28.8281 18.4844 28.4375 19.9219 27.6562 21.0781C26.6875 22.5156 25.3281 23.2344 23.5781 23.2344C22.4688 23.2344 21.4922 22.9219 20.6484 22.2969C19.1328 21.1562 18.375 19.2812 18.375 16.6719C18.375 14.9688 18.7734 13.5469 19.5703 12.4062C20.5547 11 21.9297 10.2969 23.6953 10.2969ZM23.6484 22.625C23.9922 22.625 24.3047 22.5703 24.5859 22.4609C25.8672 21.9453 26.5078 20.0156 26.5078 16.6719C26.5078 15.125 26.375 13.9062 26.1094 13.0156C25.7031 11.6094 24.875 10.9062 23.625 10.9062C23.2656 10.9062 22.9453 10.9609 22.6641 11.0703C21.3516 11.5859 20.6953 13.4844 20.6953 16.7656C20.6953 18.1719 20.8047 19.3203 21.0234 20.2109C21.4453 21.8203 22.3203 22.625 23.6484 22.625ZM34.3828 23.7031L33.6328 23.2344L43.8516 8.21094L44.5781 8.70312L34.3828 23.7031ZM34.8047 8.51562C35.4453 8.51562 36.0312 8.64844 36.5625 8.91406C37.7969 9.53906 38.4141 10.7344 38.4141 12.5C38.4141 13.375 38.2266 14.1328 37.8516 14.7734C37.1797 15.8984 36.1406 16.4609 34.7344 16.4609C34.0469 16.4609 33.4297 16.3047 32.8828 15.9922C31.7266 15.3047 31.1484 14.1172 31.1484 12.4297C31.1484 11.5547 31.3438 10.7891 31.7344 10.1328C32.4062 9.05469 33.4297 8.51562 34.8047 8.51562ZM34.7812 15.9922C34.8594 15.9922 34.9453 15.9844 35.0391 15.9688C35.9609 15.8125 36.4219 14.6328 36.4219 12.4297C36.4219 11.6172 36.3672 10.9609 36.2578 10.4609C36.0391 9.47656 35.5469 8.98438 34.7812 8.98438C34.5312 8.98438 34.3047 9.03125 34.1016 9.125C33.4453 9.45312 33.1172 10.5781 33.1172 12.5C33.1172 13.3438 33.1719 14.0234 33.2812 14.5391C33.5 15.5078 34 15.9922 34.7812 15.9922ZM43.7812 15.2891C44.4219 15.2891 45.0078 15.4219 45.5391 15.6875C46.7734 16.3125 47.3906 17.5078 47.3906 19.2734C47.3906 20.1484 47.2031 20.9062 46.8281 21.5469C46.1562 22.6719 45.1172 23.2344 43.7109 23.2344C43.0234 23.2344 42.4062 23.0781 41.8594 22.7656C40.7031 22.0781 40.125 20.8906 40.125 19.2031C40.125 18.3281 40.3203 17.5625 40.7109 16.9062C41.3828 15.8281 42.4062 15.2891 43.7812 15.2891ZM43.7578 22.7656C43.8359 22.7656 43.9219 22.7578 44.0156 22.7422C44.9375 22.5859 45.3984 21.4062 45.3984 19.2031C45.3984 18.4062 45.3438 17.75 45.2344 17.2344C45.0156 16.25 44.5234 15.7578 43.7578 15.7578C43.5078 15.7578 43.2812 15.8047 43.0781 15.8984C42.4219 16.2266 42.0938 17.3516 42.0938 19.2734C42.0938 20.1172 42.1484 20.7969 42.2578 21.3125C42.4766 22.2812 42.9766 22.7656 43.7578 22.7656Z" fill="black"/>
</svg>
