<svg width="50" height="50" viewBox="0 0 50 50" fill="none" xmlns="http://www.w3.org/2000/svg">
<path d="M37.3749 37.375C33.8137 40.0896 29.4772 41.5934 24.9999 41.6666C10.4166 41.6666 2.08325 25 2.08325 25C4.67469 20.1706 8.26895 15.9512 12.6249 12.625M20.6249 8.8333C22.0589 8.49764 23.5271 8.32984 24.9999 8.3333C39.5833 8.3333 47.9166 25 47.9166 25C46.652 27.3658 45.1438 29.5932 43.4166 31.6458M29.4166 29.4166C28.8444 30.0307 28.1544 30.5232 27.3877 30.8648C26.6211 31.2064 25.7935 31.3901 24.9543 31.4049C24.1151 31.4197 23.2815 31.2653 22.5033 30.951C21.725 30.6367 21.0181 30.1688 20.4246 29.5753C19.8311 28.9818 19.3632 28.2748 19.0489 27.4966C18.7346 26.7184 18.5802 25.8848 18.595 25.0456C18.6098 24.2064 18.7935 23.3788 19.1351 22.6122C19.4767 21.8455 19.9692 21.1555 20.5833 20.5833" stroke="black" stroke-width="2" stroke-linecap="round" stroke-linejoin="round"/>
<path d="M2.08325 2.08337L47.9166 47.9167" stroke="black" stroke-width="2" stroke-linecap="round" stroke-linejoin="round"/>
</svg>
