<svg width="50" height="50" viewBox="0 0 50 50" fill="none" xmlns="http://www.w3.org/2000/svg">
<path opacity="0.12" d="M37.5 16.6666C37.5 13.3514 36.1831 10.172 33.8389 7.82779C31.4946 5.48359 28.3152 4.16663 25 4.16663C21.6848 4.16663 18.5054 5.48359 16.1612 7.82779C13.817 10.172 12.5 13.3514 12.5 16.6666C12.5 23.1045 10.876 27.5124 9.06182 30.4279C7.53153 32.8872 6.76639 34.1168 6.79445 34.4599C6.82551 34.8397 6.90598 34.9845 7.21205 35.2116C7.48847 35.4166 8.73458 35.4166 11.2268 35.4166H38.7732C41.2655 35.4166 42.5116 35.4166 42.788 35.2116C43.0941 34.9845 43.1745 34.8397 43.2056 34.4599C43.2336 34.1168 42.4685 32.8872 40.9382 30.4279C39.124 27.5124 37.5 23.1045 37.5 16.6666Z" fill="#373737"/>
<path d="M19.4879 43.75C20.9569 45.0466 22.8866 45.8333 25 45.8333C27.1134 45.8333 29.0431 45.0466 30.5122 43.75M37.5 16.6666C37.5 13.3514 36.1831 10.172 33.8389 7.82779C31.4947 5.48359 28.3152 4.16663 25 4.16663C21.6848 4.16663 18.5054 5.48359 16.1612 7.82779C13.817 10.172 12.5 13.3514 12.5 16.6666C12.5 23.1045 10.876 27.5124 9.06182 30.4279C7.53153 32.8872 6.76639 34.1168 6.79445 34.4599C6.82551 34.8397 6.90598 34.9845 7.21205 35.2116C7.48847 35.4166 8.73458 35.4166 11.2268 35.4166H38.7732C41.2655 35.4166 42.5116 35.4166 42.788 35.2116C43.0941 34.9845 43.1745 34.8397 43.2056 34.4599C43.2336 34.1168 42.4685 32.8872 40.9382 30.4279C39.124 27.5124 37.5 23.1045 37.5 16.6666Z" stroke="#373737" stroke-width="3.33333" stroke-linecap="round" stroke-linejoin="round"/>
</svg>
