<svg width="46" height="46" viewBox="0 0 46 46" fill="none" xmlns="http://www.w3.org/2000/svg">
<path opacity="0.12" d="M36.6491 13.6494L28.5174 5.51765C28.0257 5.02597 27.4542 4.63254 26.8333 4.34998V12.2668C26.8333 13.3403 26.8333 13.877 27.0422 14.287C27.2259 14.6476 27.5191 14.9408 27.8798 15.1246C28.2898 15.3335 28.8265 15.3335 29.8999 15.3335H37.8168C37.5342 14.7126 37.1408 14.141 36.6491 13.6494Z" fill="#373737"/>
<path d="M26.8334 4.34998V12.2668C26.8334 13.3403 26.8334 13.877 27.0423 14.287C27.2261 14.6476 27.5193 14.9408 27.8799 15.1246C28.2899 15.3335 28.8266 15.3335 29.9001 15.3335H37.8169M30.6667 24.9167H15.3334M30.6667 32.5834H15.3334M19.1667 17.25H15.3334M26.8334 3.83337H16.8667C13.6464 3.83337 12.0363 3.83337 10.8063 4.46009C9.72437 5.01136 8.84473 5.891 8.29346 6.97293C7.66675 8.20292 7.66675 9.81307 7.66675 13.0334V32.9667C7.66675 36.187 7.66675 37.7972 8.29346 39.0272C8.84473 40.1091 9.72437 40.9887 10.8063 41.54C12.0363 42.1667 13.6464 42.1667 16.8667 42.1667H29.1334C32.3537 42.1667 33.9639 42.1667 35.1939 41.54C36.2758 40.9887 37.1554 40.1091 37.7067 39.0272C38.3334 37.7972 38.3334 36.187 38.3334 32.9667V15.3334L26.8334 3.83337Z" stroke="#373737" stroke-width="3.33333" stroke-linecap="round" stroke-linejoin="round"/>
</svg>
