<svg width="49" height="49" viewBox="0 0 49 49" fill="none" xmlns="http://www.w3.org/2000/svg">
<path opacity="0.12" d="M42.875 18.375V15.925C42.875 12.4947 42.875 10.7795 42.2074 9.46931C41.6202 8.31682 40.6832 7.37981 39.5307 6.79259C38.2205 6.125 36.5053 6.125 33.075 6.125L15.925 6.125C12.4947 6.125 10.7795 6.125 9.46931 6.79258C8.31682 7.37981 7.37981 8.31682 6.79259 9.46931C6.125 10.7795 6.125 12.4947 6.125 15.925L6.125 18.375L42.875 18.375Z" fill="#F5F5F5"/>
<path d="M35.7292 34.7083H13.2708M35.7292 26.5417H13.2708M6.125 18.375H42.875M15.925 6.125H33.075C36.5053 6.125 38.2205 6.125 39.5307 6.79259C40.6832 7.37981 41.6202 8.31682 42.2074 9.46931C42.875 10.7795 42.875 12.4947 42.875 15.925V33.075C42.875 36.5053 42.875 38.2205 42.2074 39.5307C41.6202 40.6832 40.6832 41.6202 39.5307 42.2074C38.2205 42.875 36.5053 42.875 33.075 42.875H15.925C12.4947 42.875 10.7795 42.875 9.46931 42.2074C8.31682 41.6202 7.37981 40.6832 6.79259 39.5307C6.125 38.2205 6.125 36.5053 6.125 33.075V15.925C6.125 12.4947 6.125 10.7795 6.79259 9.46931C7.37981 8.31682 8.31682 7.37981 9.46931 6.79259C10.7795 6.125 12.4947 6.125 15.925 6.125Z" stroke="#F5F5F5" stroke-width="3.33333" stroke-linecap="round" stroke-linejoin="round"/>
</svg>
