<svg width="50" height="50" viewBox="0 0 50 50" fill="none" xmlns="http://www.w3.org/2000/svg">
<path opacity="0.12" d="M24.9999 43.75C29.4202 43.75 33.6594 41.994 36.785 38.8684C39.9106 35.7428 41.6666 31.5036 41.6666 27.0833C41.6666 22.663 39.9106 18.4238 36.785 15.2982C33.6594 12.1726 29.4202 10.4166 24.9999 10.4166C20.5796 10.4166 16.3404 12.1726 13.2148 15.2982C10.0892 18.4238 8.33325 22.663 8.33325 27.0833C8.33325 31.5036 10.0892 35.7428 13.2148 38.8684C16.3404 41.994 20.5796 43.75 24.9999 43.75Z" fill="#373737"/>
<path d="M10.4167 6.25L4.16675 12.5M45.8334 12.5L39.5834 6.25M12.5001 39.5833L8.33342 43.75M37.5001 39.5833L41.6668 43.75M25.0001 18.75V27.0833L29.1667 31.25M25.0001 43.75C29.4204 43.75 33.6596 41.9941 36.7852 38.8684C39.9108 35.7428 41.6668 31.5036 41.6668 27.0833C41.6668 22.6631 39.9108 18.4238 36.7852 15.2982C33.6596 12.1726 29.4204 10.4167 25.0001 10.4167C20.5798 10.4167 16.3406 12.1726 13.215 15.2982C10.0894 18.4238 8.33342 22.6631 8.33342 27.0833C8.33342 31.5036 10.0894 35.7428 13.215 38.8684C16.3406 41.9941 20.5798 43.75 25.0001 43.75Z" stroke="#373737" stroke-width="3.33333" stroke-linecap="round" stroke-linejoin="round"/>
</svg>
