<svg width="50" height="50" viewBox="0 0 50 50" fill="none" xmlns="http://www.w3.org/2000/svg">
<path d="M37.2407 36.5938C36.3966 36.5957 35.5605 36.4304 34.7807 36.1075C34.0008 35.7846 33.2926 35.3105 32.6969 34.7125L26.1344 28.15C25.9021 27.9293 25.5939 27.8063 25.2735 27.8063C24.9531 27.8063 24.6449 27.9293 24.4125 28.15L17.825 34.7375C17.2296 35.3358 16.5214 35.8101 15.7415 36.133C14.9616 36.4559 14.1254 36.621 13.2813 36.6188H11.9875L20.3 44.9313C22.8938 47.525 27.1032 47.525 29.6969 44.9313L38.0313 36.5938H37.2407ZM13.2813 13.3813C15 13.3813 16.6125 14.05 17.825 15.2625L24.4125 21.85C24.5257 21.9634 24.6602 22.0534 24.8082 22.1148C24.9562 22.1761 25.1148 22.2077 25.275 22.2077C25.4353 22.2077 25.5939 22.1761 25.7419 22.1148C25.8899 22.0534 26.0244 21.9634 26.1375 21.85L32.7 15.2875C33.2952 14.6897 34.0028 14.2156 34.7822 13.8927C35.5615 13.5698 36.3971 13.4045 37.2407 13.4063H38.0313L29.6969 5.07192C28.4505 3.82638 26.7606 3.12671 24.9985 3.12671C23.2364 3.12671 21.5464 3.82638 20.3 5.07192L11.9875 13.3844L13.2813 13.3813Z" fill="black"/>
<path d="M44.928 20.3L39.8905 15.2625C39.7774 15.3089 39.6565 15.3333 39.5343 15.3344H37.2437C36.0593 15.3344 34.8999 15.8156 34.0655 16.6531L27.503 23.2156C27.2112 23.509 26.8642 23.7418 26.4821 23.9006C26.1 24.0595 25.6903 24.1413 25.2765 24.1413C24.8626 24.1413 24.4529 24.0595 24.0708 23.9006C23.6887 23.7418 23.3417 23.509 23.0499 23.2156L16.4624 16.625C15.6172 15.7833 14.4739 15.3093 13.2812 15.3062H10.4687C10.3521 15.3053 10.2366 15.2831 10.128 15.2406L5.07178 20.3C2.47803 22.8937 2.47803 27.1031 5.07178 29.7L10.128 34.7562C10.2354 34.713 10.3498 34.6897 10.4655 34.6875H13.2812C14.4687 34.6875 15.6249 34.2094 16.4624 33.3719L23.0468 26.7812C23.6476 26.2092 24.4453 25.8902 25.2749 25.8902C26.1045 25.8902 26.9022 26.2092 27.503 26.7812L34.0655 33.3437C34.8999 34.1812 36.0593 34.6593 37.2437 34.6593H39.5343C39.6593 34.6593 39.7812 34.6906 39.8905 34.7344L44.928 29.6969C47.5218 27.1031 47.5218 22.8937 44.928 20.3Z" fill="black"/>
</svg>
