<svg width="80" height="15" viewBox="0 0 80 15" fill="none" xmlns="http://www.w3.org/2000/svg">
<path d="M0 14.3164V0H6.34766C7.6237 0 8.59375 0.130208 9.25781 0.390625C9.92188 0.644531 10.4525 1.09701 10.8496 1.74805C11.2467 2.39909 11.4453 3.11849 11.4453 3.90625C11.4453 4.92188 11.1165 5.77799 10.459 6.47461C9.80143 7.17122 8.78581 7.61393 7.41211 7.80273C7.91341 8.04362 8.29427 8.28125 8.55469 8.51562C9.10807 9.02344 9.63216 9.6582 10.127 10.4199L12.6172 14.3164H10.2344L8.33984 11.3379C7.78646 10.4785 7.33073 9.82096 6.97266 9.36523C6.61458 8.90951 6.29232 8.59049 6.00586 8.4082C5.72591 8.22591 5.43945 8.09896 5.14648 8.02734C4.93164 7.98177 4.58008 7.95898 4.0918 7.95898H1.89453V14.3164H0ZM1.89453 6.31836H5.9668C6.83268 6.31836 7.50977 6.23047 7.99805 6.05469C8.48633 5.8724 8.85742 5.58594 9.11133 5.19531C9.36523 4.79818 9.49219 4.36849 9.49219 3.90625C9.49219 3.22917 9.24479 2.67253 8.75 2.23633C8.26172 1.80013 7.48698 1.58203 6.42578 1.58203H1.89453V6.31836ZM21.2988 10.9766L23.1152 11.2012C22.8288 12.2624 22.2982 13.0859 21.5234 13.6719C20.7487 14.2578 19.7591 14.5508 18.5547 14.5508C17.0378 14.5508 15.8333 14.0853 14.9414 13.1543C14.056 12.2168 13.6133 10.9049 13.6133 9.21875C13.6133 7.47396 14.0625 6.11979 14.9609 5.15625C15.8594 4.19271 17.0247 3.71094 18.457 3.71094C19.8438 3.71094 20.9766 4.18294 21.8555 5.12695C22.7344 6.07096 23.1738 7.39909 23.1738 9.11133C23.1738 9.21549 23.1706 9.37174 23.1641 9.58008H15.4297C15.4948 10.7194 15.8171 11.5918 16.3965 12.1973C16.9759 12.8027 17.6986 13.1055 18.5645 13.1055C19.209 13.1055 19.7591 12.9362 20.2148 12.5977C20.6706 12.2591 21.0319 11.7188 21.2988 10.9766ZM15.5273 8.13477H21.3184C21.2402 7.26237 21.0189 6.60807 20.6543 6.17188C20.0944 5.49479 19.3685 5.15625 18.4766 5.15625C17.6693 5.15625 16.9889 5.42643 16.4355 5.9668C15.8887 6.50716 15.5859 7.22982 15.5273 8.13477ZM25.332 14.3164V3.94531H26.9043V5.40039C27.2298 4.89258 27.6628 4.48568 28.2031 4.17969C28.7435 3.86719 29.3587 3.71094 30.0488 3.71094C30.8171 3.71094 31.4453 3.87044 31.9336 4.18945C32.4284 4.50846 32.7767 4.95443 32.9785 5.52734C33.7988 4.31641 34.8665 3.71094 36.1816 3.71094C37.2103 3.71094 38.0013 3.9974 38.5547 4.57031C39.1081 5.13672 39.3848 6.01237 39.3848 7.19727V14.3164H37.6367V7.7832C37.6367 7.08008 37.5781 6.57552 37.4609 6.26953C37.3503 5.95703 37.1452 5.70638 36.8457 5.51758C36.5462 5.32878 36.1947 5.23438 35.791 5.23438C35.0618 5.23438 34.4564 5.47852 33.9746 5.9668C33.4928 6.44857 33.252 7.22331 33.252 8.29102V14.3164H31.4941V7.57812C31.4941 6.79688 31.3509 6.21094 31.0645 5.82031C30.778 5.42969 30.3092 5.23438 29.6582 5.23438C29.1634 5.23438 28.7044 5.36458 28.2812 5.625C27.8646 5.88542 27.5618 6.26628 27.373 6.76758C27.1842 7.26888 27.0898 7.99154 27.0898 8.93555V14.3164H25.332ZM41.3379 9.13086C41.3379 7.21029 41.8717 5.78776 42.9395 4.86328C43.8314 4.09505 44.9186 3.71094 46.2012 3.71094C47.627 3.71094 48.7923 4.17969 49.6973 5.11719C50.6022 6.04818 51.0547 7.33724 51.0547 8.98438C51.0547 10.319 50.8529 11.3704 50.4492 12.1387C50.0521 12.9004 49.4694 13.4928 48.7012 13.916C47.9395 14.3392 47.1061 14.5508 46.2012 14.5508C44.7493 14.5508 43.5742 14.0853 42.6758 13.1543C41.7839 12.2233 41.3379 10.8822 41.3379 9.13086ZM43.1445 9.13086C43.1445 10.459 43.4342 11.4551 44.0137 12.1191C44.5931 12.7767 45.3223 13.1055 46.2012 13.1055C47.0736 13.1055 47.7995 12.7734 48.3789 12.1094C48.9583 11.4453 49.248 10.4329 49.248 9.07227C49.248 7.78971 48.9551 6.81966 48.3691 6.16211C47.7897 5.49805 47.0671 5.16602 46.2012 5.16602C45.3223 5.16602 44.5931 5.49479 44.0137 6.15234C43.4342 6.8099 43.1445 7.80273 43.1445 9.13086ZM56.0059 14.3164L52.0605 3.94531H53.916L56.1426 10.1562C56.3835 10.8268 56.6048 11.5234 56.8066 12.2461C56.9629 11.6992 57.181 11.0417 57.4609 10.2734L59.7656 3.94531H61.5723L57.6465 14.3164H56.0059ZM70.2246 10.9766L72.041 11.2012C71.7546 12.2624 71.224 13.0859 70.4492 13.6719C69.6745 14.2578 68.6849 14.5508 67.4805 14.5508C65.9635 14.5508 64.7591 14.0853 63.8672 13.1543C62.9818 12.2168 62.5391 10.9049 62.5391 9.21875C62.5391 7.47396 62.9883 6.11979 63.8867 5.15625C64.7852 4.19271 65.9505 3.71094 67.3828 3.71094C68.7695 3.71094 69.9023 4.18294 70.7812 5.12695C71.6602 6.07096 72.0996 7.39909 72.0996 9.11133C72.0996 9.21549 72.0964 9.37174 72.0898 9.58008H64.3555C64.4206 10.7194 64.7428 11.5918 65.3223 12.1973C65.9017 12.8027 66.6243 13.1055 67.4902 13.1055C68.1348 13.1055 68.6849 12.9362 69.1406 12.5977C69.5964 12.2591 69.9577 11.7188 70.2246 10.9766ZM64.4531 8.13477H70.2441C70.166 7.26237 69.9447 6.60807 69.5801 6.17188C69.0202 5.49479 68.2943 5.15625 67.4023 5.15625C66.5951 5.15625 65.9147 5.42643 65.3613 5.9668C64.8145 6.50716 64.5117 7.22982 64.4531 8.13477ZM74.2383 14.3164V3.94531H75.8203V5.51758C76.224 4.7819 76.5951 4.29688 76.9336 4.0625C77.2786 3.82812 77.6562 3.71094 78.0664 3.71094C78.6589 3.71094 79.2611 3.89974 79.873 4.27734L79.2676 5.9082C78.8379 5.6543 78.4082 5.52734 77.9785 5.52734C77.5944 5.52734 77.2493 5.64453 76.9434 5.87891C76.6374 6.10677 76.4193 6.42578 76.2891 6.83594C76.0938 7.46094 75.9961 8.14453 75.9961 8.88672V14.3164H74.2383Z" fill="#0077E0"/>
</svg>
