<svg width="50" height="50" viewBox="0 0 50 50" fill="none" xmlns="http://www.w3.org/2000/svg">
<g opacity="0.12">
<path d="M14.5833 6.25H31.8601C32.8034 6.25 33.708 6.6247 34.3749 7.29167C35.0419 7.95863 35.4166 8.86324 35.4166 9.80647V13.3333C35.4166 14.5001 35.4166 15.0835 35.1895 15.5291C34.9898 15.9212 34.6711 16.2399 34.2791 16.4396C33.8334 16.6667 33.25 16.6667 32.0833 16.6667H17.9166C16.7498 16.6667 16.1664 16.6667 15.7208 16.4396C15.3288 16.2399 15.0101 15.9212 14.8103 15.5291C14.5833 15.0835 14.5833 14.5001 14.5833 13.3333V6.25Z" fill="#373737"/>
<path d="M14.5833 30.4167C14.5833 29.2499 14.5833 28.6665 14.8103 28.2209C15.0101 27.8288 15.3288 27.5101 15.7208 27.3104C16.1664 27.0833 16.7498 27.0833 17.9166 27.0833H32.0833C33.25 27.0833 33.8334 27.0833 34.2791 27.3104C34.6711 27.5101 34.9898 27.8288 35.1895 28.2209C35.4166 28.6665 35.4166 29.2499 35.4166 30.4167V43.75H14.5833V30.4167Z" fill="#373737"/>
</g>
<path d="M14.5833 6.25V13.3333C14.5833 14.5001 14.5833 15.0835 14.8104 15.5291C15.0101 15.9212 15.3288 16.2399 15.7209 16.4396C16.1665 16.6667 16.7499 16.6667 17.9167 16.6667H32.0833C33.2501 16.6667 33.8335 16.6667 34.2791 16.4396C34.6712 16.2399 34.9899 15.9212 35.1896 15.5291C35.4167 15.0835 35.4167 14.5001 35.4167 13.3333V8.33333M35.4167 43.75V30.4167C35.4167 29.2499 35.4167 28.6665 35.1896 28.2209C34.9899 27.8288 34.6712 27.5101 34.2791 27.3104C33.8335 27.0833 33.2501 27.0833 32.0833 27.0833H17.9167C16.7499 27.0833 16.1665 27.0833 15.7209 27.3104C15.3288 27.5101 15.0101 27.8288 14.8104 28.2209C14.5833 28.6665 14.5833 29.2499 14.5833 30.4167V43.75M43.75 19.4281V33.75C43.75 37.2503 43.75 39.0005 43.0688 40.3374C42.4696 41.5135 41.5135 42.4696 40.3374 43.0688C39.0005 43.75 37.2503 43.75 33.75 43.75H16.25C12.7497 43.75 10.9995 43.75 9.66256 43.0688C8.48655 42.4696 7.53042 41.5135 6.93121 40.3374C6.25 39.0005 6.25 37.2503 6.25 33.75V16.25C6.25 12.7497 6.25 10.9995 6.93121 9.66256C7.53042 8.48655 8.48655 7.53042 9.66256 6.93121C10.9995 6.25 12.7497 6.25 16.25 6.25H30.5719C31.591 6.25 32.1006 6.25 32.5801 6.36513C33.0053 6.4672 33.4117 6.63555 33.7845 6.864C34.205 7.12167 34.5653 7.48199 35.286 8.20262L41.7974 14.714C42.518 15.4347 42.8783 15.795 43.136 16.2155C43.3645 16.5883 43.5328 16.9947 43.6349 17.4199C43.75 17.8994 43.75 18.409 43.75 19.4281Z" stroke="#373737" stroke-width="3.33333" stroke-linecap="round" stroke-linejoin="round"/>
</svg>
