<svg width="50" height="50" viewBox="0 0 50 50" fill="none" xmlns="http://www.w3.org/2000/svg">
<g opacity="0.12">
<path d="M6.25 34.375C6.25 31.4985 8.58185 29.1666 11.4583 29.1666C14.3348 29.1666 16.6667 31.4985 16.6667 34.375V38.5416C16.6667 41.4181 14.3348 43.75 11.4583 43.75C8.58185 43.75 6.25 41.4181 6.25 38.5416V34.375Z" fill="#373737"/>
<path d="M33.3333 34.375C33.3333 31.4985 35.6652 29.1666 38.5417 29.1666C41.4182 29.1666 43.75 31.4985 43.75 34.375V38.5416C43.75 41.4181 41.4182 43.75 38.5417 43.75C35.6652 43.75 33.3333 41.4181 33.3333 38.5416V34.375Z" fill="#373737"/>
</g>
<path d="M43.75 37.5V25C43.75 14.6447 35.3553 6.25 25 6.25C14.6447 6.25 6.25 14.6447 6.25 25V37.5M11.4583 43.75C8.58185 43.75 6.25 41.4182 6.25 38.5417V34.375C6.25 31.4985 8.58185 29.1667 11.4583 29.1667C14.3348 29.1667 16.6667 31.4985 16.6667 34.375V38.5417C16.6667 41.4182 14.3348 43.75 11.4583 43.75ZM38.5417 43.75C35.6652 43.75 33.3333 41.4182 33.3333 38.5417V34.375C33.3333 31.4985 35.6652 29.1667 38.5417 29.1667C41.4182 29.1667 43.75 31.4985 43.75 34.375V38.5417C43.75 41.4182 41.4182 43.75 38.5417 43.75Z" stroke="#373737" stroke-width="3.33333" stroke-linecap="round" stroke-linejoin="round"/>
</svg>
